<?xml version="1.0" encoding="UTF-8"?> <svg xmlns="http://www.w3.org/2000/svg" height="512pt" viewBox="0 0 512.00086 512" width="512pt"> <path d="m323.246094 5.015625c-6.726563-6.6875-17.589844-6.6875-24.3125 0l-12.226563 12.253906c-6.710937 6.71875-6.710937 17.601563 0 24.320313l6.203125 6.210937-42.949218 42.949219c-28.074219 28.101562-40.570313 68.195312-33.425782 107.273438v.308593c1.671875 9.035157 4.371094 17.855469 8.039063 26.28125-45.597657-19.792969-98.65625-9.75-133.863281 25.34375l-42.9375 42.949219-6.1875-6.195312c-6.71875-6.707032-17.601563-6.707032-24.320313 0l-12.253906 12.234374c-6.683594 6.726563-6.683594 17.582032 0 24.304688l183.714843 183.714844c6.726563 6.683594 17.585938 6.683594 24.3125 0l12.226563-12.253906c3.226563-3.226563 5.039063-7.601563 5.039063-12.160157 0-4.5625-1.8125-8.9375-5.039063-12.160156l-6.203125-6.210937 42.949219-42.949219c35.105469-35.199219 45.152343-88.269531 25.34375-133.863281 45.589843 19.859374 98.6875 9.808593 133.859375-25.34375l42.984375-42.949219 6.210937 6.203125c6.71875 6.714844 17.605469 6.714844 24.320313 0l12.253906-12.242188c6.6875-6.726562 6.6875-17.589844 0-24.3125zm-61.226563 97.800781 42.949219-42.949218 146.625 146.628906c-89.742188 18.238281-189.320312-7.191406-218.902344-15.820313-4.554687-32.265625 6.304688-64.796875 29.328125-87.859375zm-61.234375 392.105469-183.734375-183.730469 12.433594-12.421875 183.722656 183.875zm49.167969-85.757813-42.949219 42.949219-76.800781-76.800781c29.621094 10.402344 60.769531 15.789062 92.160156 15.929688 14.816407-.003907 29.605469-1.304688 44.195313-3.882813-4.546875 7.972656-10.128906 15.304687-16.605469 21.804687zm25.148437-41.070312c-95.632812 21.871094-176.050781-25.0625-176.863281-25.558594-.40625-.183594-.828125-.332031-1.261719-.445312l-37.113281-37.117188 42.949219-42.949218c34.039062-34.101563 87.050781-40.34375 128.082031-15.082032 41.027344 25.257813 59.324219 75.402344 44.207031 121.152344zm134.058594-118.136719c-25.402344 25.515625-62.207031 36.050781-97.261718 27.835938-35.054688-8.21875-63.347657-34.011719-74.761719-68.15625 47.613281 12.90625 96.667969 19.738281 145.996093 20.335937 16.425782 0 32.839844-1.039062 49.132813-3.117187zm73.292969-36.746093-12.28125-12.234376-159.171875-159.171874-12.238281-12.28125 12.425781-12.464844 183.730469 183.917968zm0 0"></path> <path d="m119.75 94.335938c-32.242188 26.371093-56.035156 61.628906-68.429688 101.398437-4.28125 13.789063-7.171874 27.972656-8.625 42.335937-.238281 2.257813.433594 4.519532 1.867188 6.28125 1.433594 1.761719 3.507812 2.878907 5.769531 3.105469h.851563c4.402344.023438 8.09375-3.304687 8.535156-7.679687 1.335938-13.222656 3.996094-26.28125 7.945312-38.972656 19.042969-61.269532 66.929688-109.300782 128.144532-128.519532l-18.9375 29.867188c-1.71875 2.574218-1.910156 5.882812-.496094 8.636718 1.417969 2.757813 4.214844 4.53125 7.3125 4.632813s6.003906-1.484375 7.597656-4.140625l30.464844-48.035156c.078125-.117188.078125-.253906.144531-.382813.394531-.699219.683594-1.457031.855469-2.242187.078125-.226563.148438-.453125.203125-.683594 0-.058594.042969-.113281.050781-.171875.113282-.945313.066406-1.902344-.136718-2.832031-.042969-.214844-.160157-.402344-.222657-.613282-.210937-.75-.523437-1.464843-.929687-2.125-.1875-.285156-.398438-.554687-.621094-.8125-.445312-.546874-.957031-1.035156-1.519531-1.457031-.179688-.128906-.28125-.324219-.46875-.453125s-.28125-.085937-.410157-.15625c-.148437-.109375-.300781-.214844-.460937-.3125l-50.9375-24.558594c-2.757813-1.453124-6.09375-1.285156-8.691406.4375-2.597657 1.726563-4.050781 4.730469-3.785157 7.839844.265626 3.109375 2.207032 5.824219 5.0625 7.082032l29.945313 14.429687c-25.550781 8.171875-49.328125 21.101563-70.078125 38.101563zm0 0"></path> <path d="m461.640625 264.566406c-4.695313-.464844-8.882813 2.941406-9.386719 7.628906-1.335937 13.222657-4 26.28125-7.945312 38.972657-19.039063 61.273437-66.929688 109.304687-128.144532 128.527343l18.933594-29.867187c1.722656-2.574219 1.910156-5.882813.496094-8.636719-1.414062-2.757812-4.210938-4.53125-7.308594-4.632812-3.097656-.101563-6.007812 1.484375-7.601562 4.140625l-30.460938 48.035156c-.078125.117187-.078125.261719-.15625.382813-.390625.703124-.675781 1.457031-.851562 2.242187-.082032.226563-.148438.453125-.207032.683594 0 .058593 0 .113281-.050781.171875-.113281.945312-.066406 1.902344.136719 2.832031 0 .214844.164062.402344.222656.605469.210938.75.523438 1.46875.929688 2.132812.191406.285156.398437.554688.625.8125.441406.546875.953125 1.035156 1.519531 1.457032.175781.128906.28125.324218.46875.453124.1875.128907.347656.136719.519531.230469s.214844.179688.347656.238281l50.945313 24.550782c1.148437.566406 2.414063.859375 3.695313.855468 3.976562 0 7.429687-2.75 8.316406-6.625.890625-3.878906-1.015625-7.855468-4.59375-9.589843l-29.945313-14.429688c25.550781-8.175781 49.324219-21.101562 70.074219-38.101562 32.246094-26.371094 56.039062-61.632813 68.429688-101.402344 4.296874-13.78125 7.199218-27.960937 8.671874-42.324219.222657-2.257812-.457031-4.515625-1.898437-6.269531-1.441406-1.75-3.523437-2.859375-5.78125-3.074219zm0 0"></path> </svg> 